<?xml version="1.0" encoding="UTF-8" standalone="no"?>
<!DOCTYPE svg PUBLIC "-//W3C//DTD SVG 1.1//EN" "http://www.w3.org/Graphics/SVG/1.1/DTD/svg11.dtd">
<!-- Created with Vectornator (http://vectornator.io/) -->
<svg height="100%" stroke-miterlimit="10" style="fill-rule:nonzero;clip-rule:evenodd;stroke-linecap:round;stroke-linejoin:round;" version="1.1" viewBox="0 0 1024 1024" width="100%" xml:space="preserve" xmlns="http://www.w3.org/2000/svg" xmlns:vectornator="http://vectornator.io" xmlns:xlink="http://www.w3.org/1999/xlink">
<defs/>
<path d="M0 0L1024 0L1024 1024L0 1024L0 0Z" fill="#ffffff" fill-rule="nonzero" opacity="1" stroke="none"/>
<g id="图层-1" vectornator:layerName="图层 1">
<path d="M703.798 387.573L703.798 387.573C685.545 387.573 670.136 393.915 657.573 406.597C645.009 419.279 638.727 434.984 638.727 453.711C639.438 472.201 646.194 487.55 658.995 499.758C671.796 511.966 687.085 518.07 704.864 518.07L756.068 518.07C759.623 518.07 762.705 519.315 765.313 521.804C767.92 524.293 769.224 527.434 769.224 531.227L769.224 766.264C769.224 769.819 767.92 772.842 765.313 775.331C762.705 777.82 759.623 779.064 756.068 779.064L651.528 779.064C647.972 779.064 644.95 777.82 642.461 775.331C639.971 772.842 638.727 769.819 638.727 766.264L638.727 537.627C638.727 532.175 636.771 527.552 632.86 523.76C628.949 519.967 624.385 518.07 619.17 518.07L396.934 518.07C391.482 518.07 386.86 519.967 383.067 523.76C379.274 527.552 377.377 532.175 377.377 537.627L377.377 766.264C377.377 769.819 376.133 772.842 373.644 775.331C371.155 777.82 368.014 779.064 364.221 779.064L260.037 779.064C256.244 779.064 253.103 777.82 250.614 775.331C248.125 772.842 246.88 769.819 246.88 766.264L246.88 504.914L246.88 400.374L246.88 269.877C246.88 266.322 248.125 263.24 250.614 260.632C253.103 258.025 256.244 256.721 260.037 256.721L364.221 256.721C368.014 256.721 371.155 258.025 373.644 260.632C376.133 263.24 377.377 266.322 377.377 269.877L377.377 368.017C377.377 373.232 379.274 377.795 383.067 381.706C386.86 385.618 391.482 387.573 396.934 387.573L619.17 387.573C624.385 387.573 628.949 385.618 632.86 381.706C636.771 377.795 638.727 373.232 638.727 368.017L638.727 269.877C638.727 266.322 639.971 263.24 642.461 260.632C644.95 258.025 647.972 256.721 651.528 256.721L756.068 256.721C759.623 256.721 762.705 258.025 765.313 260.632C767.92 263.24 769.224 266.322 769.224 269.877L769.224 374.417C769.224 377.973 767.92 381.055 765.313 383.662C762.705 386.27 759.623 387.573 756.068 387.573L703.798 387.573Z" fill="#000000" opacity="1" stroke="none"/>
</g>
</svg>
